<svg width="40" height="40" viewBox="0 0 40 40" fill="none" xmlns="http://www.w3.org/2000/svg">
<path d="M0 16C0 10.3995 0 7.5992 1.08993 5.46009C2.04867 3.57847 3.57847 2.04867 5.46009 1.08993C7.5992 0 10.3995 0 16 0H24C29.6005 0 32.4008 0 34.5399 1.08993C36.4215 2.04867 37.9513 3.57847 38.9101 5.46009C40 7.5992 40 10.3995 40 16V24C40 29.6005 40 32.4008 38.9101 34.5399C37.9513 36.4215 36.4215 37.9513 34.5399 38.9101C32.4008 40 29.6005 40 24 40H16C10.3995 40 7.5992 40 5.46009 38.9101C3.57847 37.9513 2.04867 36.4215 1.08993 34.5399C0 32.4008 0 29.6005 0 24V16Z" fill="url(#paint0_linear_5026_42506)"/>
<path d="M20.2715 15.666H28.4629L31.082 20.2031C31.0771 20.1943 31.0735 20.1846 31.0684 20.1758L32.0391 21.8574C32.5658 22.7707 32.5657 23.8953 32.0391 24.8086L29.3164 29.5244C28.7896 30.4376 27.8157 31 26.7607 31H11.4277L11.4287 30.999H11.4268L15.8535 23.333H24.6885L20.2656 15.6738L15.8535 23.333H7L15.002 9.47559C15.5286 8.56245 16.5034 8.00016 17.5566 8H24.6895L20.2715 15.666Z" fill="#16283C"/>
<defs>
<linearGradient id="paint0_linear_5026_42506" x1="20" y1="40" x2="20" y2="-1.56617e-07" gradientUnits="userSpaceOnUse">
<stop stop-color="#51ABFF"/>
<stop offset="1" stop-color="#00D9FF"/>
</linearGradient>
</defs>
</svg>
